v 0.040000 0.000000 0.000000
vn 0.000000 0.000000 -1.000000
v 0.036039 0.017355 0.000000
vn 0.000000 0.000000 -1.000000
v 0.024940 0.031273 0.000000
vn 0.000000 0.000000 -1.000000
v 0.008901 0.038997 0.000000
vn 0.000000 0.000000 -1.000000
v -0.008901 0.038997 0.000000
vn 0.000000 0.000000 -1.000000
v -0.024940 0.031273 0.000000
vn 0.000000 0.000000 -1.000000
v -0.036039 0.017355 0.000000
vn 0.000000 0.000000 -1.000000
v -0.040000 0.000000 0.000000
vn 0.000000 0.000000 -1.000000
v -0.036039 -0.017355 0.000000
vn 0.000000 0.000000 -1.000000
v -0.024940 -0.031273 0.000000
vn 0.000000 0.000000 -1.000000
v -0.008901 -0.038997 0.000000
vn 0.000000 0.000000 -1.000000
v 0.008901 -0.038997 0.000000
vn 0.000000 0.000000 -1.000000
v 0.024940 -0.031273 0.000000
vn 0.000000 0.000000 -1.000000
v 0.036039 -0.017355 0.000000
vn 0.000000 0.000000 -1.000000
v 0.040000 0.000000 0.000000
vn 1.000000 0.000000 0.000000
v 0.036039 0.017355 0.000000
vn 0.900969 0.433884 0.000000
v 0.024940 0.031273 0.000000
vn 0.623490 0.781831 0.000000
v 0.008901 0.038997 0.000000
vn 0.222521 0.974928 0.000000
v -0.008901 0.038997 0.000000
vn -0.222521 0.974928 0.000000
v -0.024940 0.031273 0.000000
vn -0.623490 0.781831 0.000000
v -0.036039 0.017355 0.000000
vn -0.900969 0.433884 0.000000
v -0.040000 0.000000 0.000000
vn -1.000000 0.000000 0.000000
v -0.036039 -0.017355 0.000000
vn -0.900969 -0.433884 0.000000
v -0.024940 -0.031273 0.000000
vn -0.623490 -0.781831 0.000000
v -0.008901 -0.038997 0.000000
vn -0.222521 -0.974928 0.000000
v 0.008901 -0.038997 0.000000
vn 0.222521 -0.974928 0.000000
v 0.024940 -0.031273 0.000000
vn 0.623490 -0.781831 0.000000
v 0.036039 -0.017355 0.000000
vn 0.900969 -0.433884 0.000000
v 0.040000 0.000000 0.250000
vn 1.000000 0.000000 0.000000
v 0.036039 0.017355 0.250000
vn 0.900969 0.433884 0.000000
v 0.024940 0.031273 0.250000
vn 0.623490 0.781831 0.000000
v 0.008901 0.038997 0.250000
vn 0.222521 0.974928 0.000000
v -0.008901 0.038997 0.250000
vn -0.222521 0.974928 0.000000
v -0.024940 0.031273 0.250000
vn -0.623490 0.781831 0.000000
v -0.036039 0.017355 0.250000
vn -0.900969 0.433884 0.000000
v -0.040000 0.000000 0.250000
vn -1.000000 0.000000 0.000000
v -0.036039 -0.017355 0.250000
vn -0.900969 -0.433884 0.000000
v -0.024940 -0.031273 0.250000
vn -0.623490 -0.781831 0.000000
v -0.008901 -0.038997 0.250000
vn -0.222521 -0.974928 0.000000
v 0.008901 -0.038997 0.250000
vn 0.222521 -0.974928 0.000000
v 0.024940 -0.031273 0.250000
vn 0.623490 -0.781831 0.000000
v 0.036039 -0.017355 0.250000
vn 0.900969 -0.433884 0.000000
v 0.040000 0.000000 0.250000
vn 0.000000 0.000000 -1.000000
v 0.036039 0.017355 0.250000
vn 0.000000 0.000000 -1.000000
v 0.024940 0.031273 0.250000
vn 0.000000 0.000000 -1.000000
v 0.008901 0.038997 0.250000
vn 0.000000 0.000000 -1.000000
v -0.008901 0.038997 0.250000
vn 0.000000 0.000000 -1.000000
v -0.024940 0.031273 0.250000
vn 0.000000 0.000000 -1.000000
v -0.036039 0.017355 0.250000
vn 0.000000 0.000000 -1.000000
v -0.040000 0.000000 0.250000
vn 0.000000 0.000000 -1.000000
v -0.036039 -0.017355 0.250000
vn 0.000000 0.000000 -1.000000
v -0.024940 -0.031273 0.250000
vn 0.000000 0.000000 -1.000000
v -0.008901 -0.038997 0.250000
vn 0.000000 0.000000 -1.000000
v 0.008901 -0.038997 0.250000
vn 0.000000 0.000000 -1.000000
v 0.024940 -0.031273 0.250000
vn 0.000000 0.000000 -1.000000
v 0.036039 -0.017355 0.250000
vn 0.000000 0.000000 -1.000000
v 0.060000 0.000000 0.250000
vn 0.000000 0.000000 -1.000000
v 0.054058 0.026033 0.250000
vn 0.000000 0.000000 -1.000000
v 0.037409 0.046910 0.250000
vn 0.000000 0.000000 -1.000000
v 0.013351 0.058496 0.250000
vn 0.000000 0.000000 -1.000000
v -0.013351 0.058496 0.250000
vn 0.000000 0.000000 -1.000000
v -0.037409 0.046910 0.250000
vn 0.000000 0.000000 -1.000000
v -0.054058 0.026033 0.250000
vn 0.000000 0.000000 -1.000000
v -0.060000 0.000000 0.250000
vn 0.000000 0.000000 -1.000000
v -0.054058 -0.026033 0.250000
vn 0.000000 0.000000 -1.000000
v -0.037409 -0.046910 0.250000
vn 0.000000 0.000000 -1.000000
v -0.013351 -0.058496 0.250000
vn 0.000000 0.000000 -1.000000
v 0.013351 -0.058496 0.250000
vn 0.000000 0.000000 -1.000000
v 0.037409 -0.046910 0.250000
vn 0.000000 0.000000 -1.000000
v 0.054058 -0.026033 0.250000
vn 0.000000 0.000000 -1.000000
v 0.000000 0.000000 1.000000
vn 0.000000 0.000000 1.000000
v 0.060000 0.000000 0.250000
vn 0.996815 0.000000 0.079745
v 0.054058 0.026033 0.250000
vn 0.898100 0.432502 0.079745
v 0.037409 0.046910 0.250000
vn 0.621504 0.779342 0.079745
v 0.013351 0.058496 0.250000
vn 0.221812 0.971823 0.079745
v -0.013351 0.058496 0.250000
vn -0.221812 0.971823 0.079745
v -0.037409 0.046910 0.250000
vn -0.621504 0.779342 0.079745
v -0.054058 0.026033 0.250000
vn -0.898100 0.432502 0.079745
v -0.060000 0.000000 0.250000
vn -0.996815 0.000000 0.079745
v -0.054058 -0.026033 0.250000
vn -0.898100 -0.432502 0.079745
v -0.037409 -0.046910 0.250000
vn -0.621504 -0.779342 0.079745
v -0.013351 -0.058496 0.250000
vn -0.221812 -0.971823 0.079745
v 0.013351 -0.058496 0.250000
vn 0.221812 -0.971823 0.079745
v 0.037409 -0.046910 0.250000
vn 0.621504 -0.779342 0.079745
v 0.054058 -0.026033 0.250000
vn 0.898100 -0.432502 0.079745

f 1//1 3//3 2//2
f 1//1 4//4 3//3
f 1//1 5//5 4//4
f 1//1 6//6 5//5
f 1//1 7//7 6//6
f 1//1 8//8 7//7
f 1//1 9//9 8//8
f 1//1 10//10 9//9
f 1//1 11//11 10//10
f 1//1 12//12 11//11
f 1//1 13//13 12//12
f 1//1 14//14 13//13
f 15//15 30//30 29//29
f 15//15 16//16 30//30
f 16//16 31//31 30//30
f 16//16 17//17 31//31
f 17//17 32//32 31//31
f 17//17 18//18 32//32
f 18//18 33//33 32//32
f 18//18 19//19 33//33
f 19//19 34//34 33//33
f 19//19 20//20 34//34
f 20//20 35//35 34//34
f 20//20 21//21 35//35
f 21//21 36//36 35//35
f 21//21 22//22 36//36
f 22//22 37//37 36//36
f 22//22 23//23 37//37
f 23//23 38//38 37//37
f 23//23 24//24 38//38
f 24//24 39//39 38//38
f 24//24 25//25 39//39
f 25//25 40//40 39//39
f 25//25 26//26 40//40
f 26//26 41//41 40//40
f 26//26 27//27 41//41
f 27//27 42//42 41//41
f 27//27 28//28 42//42
f 28//28 29//29 42//42
f 28//28 15//15 29//29
f 43//43 58//58 57//57
f 43//43 44//44 58//58
f 44//44 59//59 58//58
f 44//44 45//45 59//59
f 45//45 60//60 59//59
f 45//45 46//46 60//60
f 46//46 61//61 60//60
f 46//46 47//47 61//61
f 47//47 62//62 61//61
f 47//47 48//48 62//62
f 48//48 63//63 62//62
f 48//48 49//49 63//63
f 49//49 64//64 63//63
f 49//49 50//50 64//64
f 50//50 65//65 64//64
f 50//50 51//51 65//65
f 51//51 66//66 65//65
f 51//51 52//52 66//66
f 52//52 67//67 66//66
f 52//52 53//53 67//67
f 53//53 68//68 67//67
f 53//53 54//54 68//68
f 54//54 69//69 68//68
f 54//54 55//55 69//69
f 55//55 70//70 69//69
f 55//55 56//56 70//70
f 56//56 57//57 70//70
f 56//56 43//43 57//57
f 71//71 72//72 73//73
f 71//71 73//73 74//74
f 71//71 74//74 75//75
f 71//71 75//75 76//76
f 71//71 76//76 77//77
f 71//71 77//77 78//78
f 71//71 78//78 79//79
f 71//71 79//79 80//80
f 71//71 80//80 81//81
f 71//71 81//81 82//82
f 71//71 82//82 83//83
f 71//71 83//83 84//84
f 71//71 84//84 85//85
f 71//71 85//85 72//72
