v 0.040000 0.000000 0.000000
vn 0.000000 0.000000 -1.000000
v 0.036955 0.015307 0.000000
vn 0.000000 0.000000 -1.000000
v 0.028284 0.028284 0.000000
vn 0.000000 0.000000 -1.000000
v 0.015307 0.036955 0.000000
vn 0.000000 0.000000 -1.000000
v 0.000000 0.040000 0.000000
vn 0.000000 0.000000 -1.000000
v -0.015307 0.036955 0.000000
vn 0.000000 0.000000 -1.000000
v -0.028284 0.028284 0.000000
vn 0.000000 0.000000 -1.000000
v -0.036955 0.015307 0.000000
vn 0.000000 0.000000 -1.000000
v -0.040000 0.000000 0.000000
vn 0.000000 0.000000 -1.000000
v -0.036955 -0.015307 0.000000
vn 0.000000 0.000000 -1.000000
v -0.028284 -0.028284 0.000000
vn 0.000000 0.000000 -1.000000
v -0.015307 -0.036955 0.000000
vn 0.000000 0.000000 -1.000000
v -0.000000 -0.040000 0.000000
vn 0.000000 0.000000 -1.000000
v 0.015307 -0.036955 0.000000
vn 0.000000 0.000000 -1.000000
v 0.028284 -0.028284 0.000000
vn 0.000000 0.000000 -1.000000
v 0.036955 -0.015307 0.000000
vn 0.000000 0.000000 -1.000000
v 0.040000 0.000000 0.000000
vn 1.000000 0.000000 0.000000
v 0.036955 0.015307 0.000000
vn 0.923880 0.382683 0.000000
v 0.028284 0.028284 0.000000
vn 0.707107 0.707107 0.000000
v 0.015307 0.036955 0.000000
vn 0.382683 0.923880 0.000000
v 0.000000 0.040000 0.000000
vn 0.000000 1.000000 0.000000
v -0.015307 0.036955 0.000000
vn -0.382683 0.923880 0.000000
v -0.028284 0.028284 0.000000
vn -0.707107 0.707107 0.000000
v -0.036955 0.015307 0.000000
vn -0.923880 0.382683 0.000000
v -0.040000 0.000000 0.000000
vn -1.000000 0.000000 0.000000
v -0.036955 -0.015307 0.000000
vn -0.923880 -0.382683 0.000000
v -0.028284 -0.028284 0.000000
vn -0.707107 -0.707107 0.000000
v -0.015307 -0.036955 0.000000
vn -0.382683 -0.923880 0.000000
v -0.000000 -0.040000 0.000000
vn -0.000000 -1.000000 0.000000
v 0.015307 -0.036955 0.000000
vn 0.382683 -0.923880 0.000000
v 0.028284 -0.028284 0.000000
vn 0.707107 -0.707107 0.000000
v 0.036955 -0.015307 0.000000
vn 0.923880 -0.382683 0.000000
v 0.040000 0.000000 0.250000
vn 1.000000 0.000000 0.000000
v 0.036955 0.015307 0.250000
vn 0.923880 0.382683 0.000000
v 0.028284 0.028284 0.250000
vn 0.707107 0.707107 0.000000
v 0.015307 0.036955 0.250000
vn 0.382683 0.923880 0.000000
v 0.000000 0.040000 0.250000
vn 0.000000 1.000000 0.000000
v -0.015307 0.036955 0.250000
vn -0.382683 0.923880 0.000000
v -0.028284 0.028284 0.250000
vn -0.707107 0.707107 0.000000
v -0.036955 0.015307 0.250000
vn -0.923880 0.382683 0.000000
v -0.040000 0.000000 0.250000
vn -1.000000 0.000000 0.000000
v -0.036955 -0.015307 0.250000
vn -0.923880 -0.382683 0.000000
v -0.028284 -0.028284 0.250000
vn -0.707107 -0.707107 0.000000
v -0.015307 -0.036955 0.250000
vn -0.382683 -0.923880 0.000000
v -0.000000 -0.040000 0.250000
vn -0.000000 -1.000000 0.000000
v 0.015307 -0.036955 0.250000
vn 0.382683 -0.923880 0.000000
v 0.028284 -0.028284 0.250000
vn 0.707107 -0.707107 0.000000
v 0.036955 -0.015307 0.250000
vn 0.923880 -0.382683 0.000000
v 0.040000 0.000000 0.250000
vn 0.000000 0.000000 -1.000000
v 0.036955 0.015307 0.250000
vn 0.000000 0.000000 -1.000000
v 0.028284 0.028284 0.250000
vn 0.000000 0.000000 -1.000000
v 0.015307 0.036955 0.250000
vn 0.000000 0.000000 -1.000000
v 0.000000 0.040000 0.250000
vn 0.000000 0.000000 -1.000000
v -0.015307 0.036955 0.250000
vn 0.000000 0.000000 -1.000000
v -0.028284 0.028284 0.250000
vn 0.000000 0.000000 -1.000000
v -0.036955 0.015307 0.250000
vn 0.000000 0.000000 -1.000000
v -0.040000 0.000000 0.250000
vn 0.000000 0.000000 -1.000000
v -0.036955 -0.015307 0.250000
vn 0.000000 0.000000 -1.000000
v -0.028284 -0.028284 0.250000
vn 0.000000 0.000000 -1.000000
v -0.015307 -0.036955 0.250000
vn 0.000000 0.000000 -1.000000
v -0.000000 -0.040000 0.250000
vn 0.000000 0.000000 -1.000000
v 0.015307 -0.036955 0.250000
vn 0.000000 0.000000 -1.000000
v 0.028284 -0.028284 0.250000
vn 0.000000 0.000000 -1.000000
v 0.036955 -0.015307 0.250000
vn 0.000000 0.000000 -1.000000
v 0.100000 0.000000 0.250000
vn 0.000000 0.000000 -1.000000
v 0.092388 0.038268 0.250000
vn 0.000000 0.000000 -1.000000
v 0.070711 0.070711 0.250000
vn 0.000000 0.000000 -1.000000
v 0.038268 0.092388 0.250000
vn 0.000000 0.000000 -1.000000
v 0.000000 0.100000 0.250000
vn 0.000000 0.000000 -1.000000
v -0.038268 0.092388 0.250000
vn 0.000000 0.000000 -1.000000
v -0.070711 0.070711 0.250000
vn 0.000000 0.000000 -1.000000
v -0.092388 0.038268 0.250000
vn 0.000000 0.000000 -1.000000
v -0.100000 0.000000 0.250000
vn 0.000000 0.000000 -1.000000
v -0.092388 -0.038268 0.250000
vn 0.000000 0.000000 -1.000000
v -0.070711 -0.070711 0.250000
vn 0.000000 0.000000 -1.000000
v -0.038268 -0.092388 0.250000
vn 0.000000 0.000000 -1.000000
v -0.000000 -0.100000 0.250000
vn 0.000000 0.000000 -1.000000
v 0.038268 -0.092388 0.250000
vn 0.000000 0.000000 -1.000000
v 0.070711 -0.070711 0.250000
vn 0.000000 0.000000 -1.000000
v 0.092388 -0.038268 0.250000
vn 0.000000 0.000000 -1.000000
v 0.000000 0.000000 1.000000
vn 0.000000 0.000000 1.000000
v 0.100000 0.000000 0.250000
vn 0.991228 0.000000 0.132164
v 0.092388 0.038268 0.250000
vn 0.915775 0.379326 0.132164
v 0.070711 0.070711 0.250000
vn 0.700904 0.700904 0.132164
v 0.038268 0.092388 0.250000
vn 0.379326 0.915775 0.132164
v 0.000000 0.100000 0.250000
vn 0.000000 0.991228 0.132164
v -0.038268 0.092388 0.250000
vn -0.379326 0.915775 0.132164
v -0.070711 0.070711 0.250000
vn -0.700904 0.700904 0.132164
v -0.092388 0.038268 0.250000
vn -0.915775 0.379326 0.132164
v -0.100000 0.000000 0.250000
vn -0.991228 0.000000 0.132164
v -0.092388 -0.038268 0.250000
vn -0.915775 -0.379326 0.132164
v -0.070711 -0.070711 0.250000
vn -0.700904 -0.700904 0.132164
v -0.038268 -0.092388 0.250000
vn -0.379326 -0.915775 0.132164
v -0.000000 -0.100000 0.250000
vn -0.000000 -0.991228 0.132164
v 0.038268 -0.092388 0.250000
vn 0.379326 -0.915775 0.132164
v 0.070711 -0.070711 0.250000
vn 0.700904 -0.700904 0.132164
v 0.092388 -0.038268 0.250000
vn 0.915775 -0.379326 0.132164

f 1//1 3//3 2//2
f 1//1 4//4 3//3
f 1//1 5//5 4//4
f 1//1 6//6 5//5
f 1//1 7//7 6//6
f 1//1 8//8 7//7
f 1//1 9//9 8//8
f 1//1 10//10 9//9
f 1//1 11//11 10//10
f 1//1 12//12 11//11
f 1//1 13//13 12//12
f 1//1 14//14 13//13
f 1//1 15//15 14//14
f 1//1 16//16 15//15
f 17//17 34//34 33//33
f 17//17 18//18 34//34
f 18//18 35//35 34//34
f 18//18 19//19 35//35
f 19//19 36//36 35//35
f 19//19 20//20 36//36
f 20//20 37//37 36//36
f 20//20 21//21 37//37
f 21//21 38//38 37//37
f 21//21 22//22 38//38
f 22//22 39//39 38//38
f 22//22 23//23 39//39
f 23//23 40//40 39//39
f 23//23 24//24 40//40
f 24//24 41//41 40//40
f 24//24 25//25 41//41
f 25//25 42//42 41//41
f 25//25 26//26 42//42
f 26//26 43//43 42//42
f 26//26 27//27 43//43
f 27//27 44//44 43//43
f 27//27 28//28 44//44
f 28//28 45//45 44//44
f 28//28 29//29 45//45
f 29//29 46//46 45//45
f 29//29 30//30 46//46
f 30//30 47//47 46//46
f 30//30 31//31 47//47
f 31//31 48//48 47//47
f 31//31 32//32 48//48
f 32//32 33//33 48//48
f 32//32 17//17 33//33
f 49//49 66//66 65//65
f 49//49 50//50 66//66
f 50//50 67//67 66//66
f 50//50 51//51 67//67
f 51//51 68//68 67//67
f 51//51 52//52 68//68
f 52//52 69//69 68//68
f 52//52 53//53 69//69
f 53//53 70//70 69//69
f 53//53 54//54 70//70
f 54//54 71//71 70//70
f 54//54 55//55 71//71
f 55//55 72//72 71//71
f 55//55 56//56 72//72
f 56//56 73//73 72//72
f 56//56 57//57 73//73
f 57//57 74//74 73//73
f 57//57 58//58 74//74
f 58//58 75//75 74//74
f 58//58 59//59 75//75
f 59//59 76//76 75//75
f 59//59 60//60 76//76
f 60//60 77//77 76//76
f 60//60 61//61 77//77
f 61//61 78//78 77//77
f 61//61 62//62 78//78
f 62//62 79//79 78//78
f 62//62 63//63 79//79
f 63//63 80//80 79//79
f 63//63 64//64 80//80
f 64//64 65//65 80//80
f 64//64 49//49 65//65
f 81//81 82//82 83//83
f 81//81 83//83 84//84
f 81//81 84//84 85//85
f 81//81 85//85 86//86
f 81//81 86//86 87//87
f 81//81 87//87 88//88
f 81//81 88//88 89//89
f 81//81 89//89 90//90
f 81//81 90//90 91//91
f 81//81 91//91 92//92
f 81//81 92//92 93//93
f 81//81 93//93 94//94
f 81//81 94//94 95//95
f 81//81 95//95 96//96
f 81//81 96//96 97//97
f 81//81 97//97 82//82
