v 0.040000 0.000000 0.000000
vn 0.000000 0.000000 -1.000000
v 0.038042 0.012361 0.000000
vn 0.000000 0.000000 -1.000000
v 0.032361 0.023511 0.000000
vn 0.000000 0.000000 -1.000000
v 0.023511 0.032361 0.000000
vn 0.000000 0.000000 -1.000000
v 0.012361 0.038042 0.000000
vn 0.000000 0.000000 -1.000000
v 0.000000 0.040000 0.000000
vn 0.000000 0.000000 -1.000000
v -0.012361 0.038042 0.000000
vn 0.000000 0.000000 -1.000000
v -0.023511 0.032361 0.000000
vn 0.000000 0.000000 -1.000000
v -0.032361 0.023511 0.000000
vn 0.000000 0.000000 -1.000000
v -0.038042 0.012361 0.000000
vn 0.000000 0.000000 -1.000000
v -0.040000 0.000000 0.000000
vn 0.000000 0.000000 -1.000000
v -0.038042 -0.012361 0.000000
vn 0.000000 0.000000 -1.000000
v -0.032361 -0.023511 0.000000
vn 0.000000 0.000000 -1.000000
v -0.023511 -0.032361 0.000000
vn 0.000000 0.000000 -1.000000
v -0.012361 -0.038042 0.000000
vn 0.000000 0.000000 -1.000000
v -0.000000 -0.040000 0.000000
vn 0.000000 0.000000 -1.000000
v 0.012361 -0.038042 0.000000
vn 0.000000 0.000000 -1.000000
v 0.023511 -0.032361 0.000000
vn 0.000000 0.000000 -1.000000
v 0.032361 -0.023511 0.000000
vn 0.000000 0.000000 -1.000000
v 0.038042 -0.012361 0.000000
vn 0.000000 0.000000 -1.000000
v 0.040000 0.000000 0.000000
vn 1.000000 0.000000 0.000000
v 0.038042 0.012361 0.000000
vn 0.951057 0.309017 0.000000
v 0.032361 0.023511 0.000000
vn 0.809017 0.587785 0.000000
v 0.023511 0.032361 0.000000
vn 0.587785 0.809017 0.000000
v 0.012361 0.038042 0.000000
vn 0.309017 0.951057 0.000000
v 0.000000 0.040000 0.000000
vn 0.000000 1.000000 0.000000
v -0.012361 0.038042 0.000000
vn -0.309017 0.951057 0.000000
v -0.023511 0.032361 0.000000
vn -0.587785 0.809017 0.000000
v -0.032361 0.023511 0.000000
vn -0.809017 0.587785 0.000000
v -0.038042 0.012361 0.000000
vn -0.951057 0.309017 0.000000
v -0.040000 0.000000 0.000000
vn -1.000000 0.000000 0.000000
v -0.038042 -0.012361 0.000000
vn -0.951057 -0.309017 0.000000
v -0.032361 -0.023511 0.000000
vn -0.809017 -0.587785 0.000000
v -0.023511 -0.032361 0.000000
vn -0.587785 -0.809017 0.000000
v -0.012361 -0.038042 0.000000
vn -0.309017 -0.951057 0.000000
v -0.000000 -0.040000 0.000000
vn -0.000000 -1.000000 0.000000
v 0.012361 -0.038042 0.000000
vn 0.309017 -0.951057 0.000000
v 0.023511 -0.032361 0.000000
vn 0.587785 -0.809017 0.000000
v 0.032361 -0.023511 0.000000
vn 0.809017 -0.587785 0.000000
v 0.038042 -0.012361 0.000000
vn 0.951057 -0.309017 0.000000
v 0.040000 0.000000 0.600000
vn 1.000000 0.000000 0.000000
v 0.038042 0.012361 0.600000
vn 0.951057 0.309017 0.000000
v 0.032361 0.023511 0.600000
vn 0.809017 0.587785 0.000000
v 0.023511 0.032361 0.600000
vn 0.587785 0.809017 0.000000
v 0.012361 0.038042 0.600000
vn 0.309017 0.951057 0.000000
v 0.000000 0.040000 0.600000
vn 0.000000 1.000000 0.000000
v -0.012361 0.038042 0.600000
vn -0.309017 0.951057 0.000000
v -0.023511 0.032361 0.600000
vn -0.587785 0.809017 0.000000
v -0.032361 0.023511 0.600000
vn -0.809017 0.587785 0.000000
v -0.038042 0.012361 0.600000
vn -0.951057 0.309017 0.000000
v -0.040000 0.000000 0.600000
vn -1.000000 0.000000 0.000000
v -0.038042 -0.012361 0.600000
vn -0.951057 -0.309017 0.000000
v -0.032361 -0.023511 0.600000
vn -0.809017 -0.587785 0.000000
v -0.023511 -0.032361 0.600000
vn -0.587785 -0.809017 0.000000
v -0.012361 -0.038042 0.600000
vn -0.309017 -0.951057 0.000000
v -0.000000 -0.040000 0.600000
vn -0.000000 -1.000000 0.000000
v 0.012361 -0.038042 0.600000
vn 0.309017 -0.951057 0.000000
v 0.023511 -0.032361 0.600000
vn 0.587785 -0.809017 0.000000
v 0.032361 -0.023511 0.600000
vn 0.809017 -0.587785 0.000000
v 0.038042 -0.012361 0.600000
vn 0.951057 -0.309017 0.000000
v 0.040000 0.000000 0.600000
vn 0.000000 0.000000 -1.000000
v 0.038042 0.012361 0.600000
vn 0.000000 0.000000 -1.000000
v 0.032361 0.023511 0.600000
vn 0.000000 0.000000 -1.000000
v 0.023511 0.032361 0.600000
vn 0.000000 0.000000 -1.000000
v 0.012361 0.038042 0.600000
vn 0.000000 0.000000 -1.000000
v 0.000000 0.040000 0.600000
vn 0.000000 0.000000 -1.000000
v -0.012361 0.038042 0.600000
vn 0.000000 0.000000 -1.000000
v -0.023511 0.032361 0.600000
vn 0.000000 0.000000 -1.000000
v -0.032361 0.023511 0.600000
vn 0.000000 0.000000 -1.000000
v -0.038042 0.012361 0.600000
vn 0.000000 0.000000 -1.000000
v -0.040000 0.000000 0.600000
vn 0.000000 0.000000 -1.000000
v -0.038042 -0.012361 0.600000
vn 0.000000 0.000000 -1.000000
v -0.032361 -0.023511 0.600000
vn 0.000000 0.000000 -1.000000
v -0.023511 -0.032361 0.600000
vn 0.000000 0.000000 -1.000000
v -0.012361 -0.038042 0.600000
vn 0.000000 0.000000 -1.000000
v -0.000000 -0.040000 0.600000
vn 0.000000 0.000000 -1.000000
v 0.012361 -0.038042 0.600000
vn 0.000000 0.000000 -1.000000
v 0.023511 -0.032361 0.600000
vn 0.000000 0.000000 -1.000000
v 0.032361 -0.023511 0.600000
vn 0.000000 0.000000 -1.000000
v 0.038042 -0.012361 0.600000
vn 0.000000 0.000000 -1.000000
v 0.060000 0.000000 0.600000
vn 0.000000 0.000000 -1.000000
v 0.057063 0.018541 0.600000
vn 0.000000 0.000000 -1.000000
v 0.048541 0.035267 0.600000
vn 0.000000 0.000000 -1.000000
v 0.035267 0.048541 0.600000
vn 0.000000 0.000000 -1.000000
v 0.018541 0.057063 0.600000
vn 0.000000 0.000000 -1.000000
v 0.000000 0.060000 0.600000
vn 0.000000 0.000000 -1.000000
v -0.018541 0.057063 0.600000
vn 0.000000 0.000000 -1.000000
v -0.035267 0.048541 0.600000
vn 0.000000 0.000000 -1.000000
v -0.048541 0.035267 0.600000
vn 0.000000 0.000000 -1.000000
v -0.057063 0.018541 0.600000
vn 0.000000 0.000000 -1.000000
v -0.060000 0.000000 0.600000
vn 0.000000 0.000000 -1.000000
v -0.057063 -0.018541 0.600000
vn 0.000000 0.000000 -1.000000
v -0.048541 -0.035267 0.600000
vn 0.000000 0.000000 -1.000000
v -0.035267 -0.048541 0.600000
vn 0.000000 0.000000 -1.000000
v -0.018541 -0.057063 0.600000
vn 0.000000 0.000000 -1.000000
v -0.000000 -0.060000 0.600000
vn 0.000000 0.000000 -1.000000
v 0.018541 -0.057063 0.600000
vn 0.000000 0.000000 -1.000000
v 0.035267 -0.048541 0.600000
vn 0.000000 0.000000 -1.000000
v 0.048541 -0.035267 0.600000
vn 0.000000 0.000000 -1.000000
v 0.057063 -0.018541 0.600000
vn 0.000000 0.000000 -1.000000
v 0.000000 0.000000 1.000000
vn 0.000000 0.000000 1.000000
v 0.060000 0.000000 0.600000
vn 0.988936 0.000000 0.148340
v 0.057063 0.018541 0.600000
vn 0.940534 0.305598 0.148340
v 0.048541 0.035267 0.600000
vn 0.800066 0.581282 0.148340
v 0.035267 0.048541 0.600000
vn 0.581282 0.800066 0.148340
v 0.018541 0.057063 0.600000
vn 0.305598 0.940534 0.148340
v 0.000000 0.060000 0.600000
vn 0.000000 0.988936 0.148340
v -0.018541 0.057063 0.600000
vn -0.305598 0.940534 0.148340
v -0.035267 0.048541 0.600000
vn -0.581282 0.800066 0.148340
v -0.048541 0.035267 0.600000
vn -0.800066 0.581282 0.148340
v -0.057063 0.018541 0.600000
vn -0.940534 0.305598 0.148340
v -0.060000 0.000000 0.600000
vn -0.988936 0.000000 0.148340
v -0.057063 -0.018541 0.600000
vn -0.940534 -0.305598 0.148340
v -0.048541 -0.035267 0.600000
vn -0.800066 -0.581282 0.148340
v -0.035267 -0.048541 0.600000
vn -0.581282 -0.800066 0.148340
v -0.018541 -0.057063 0.600000
vn -0.305598 -0.940534 0.148340
v -0.000000 -0.060000 0.600000
vn -0.000000 -0.988936 0.148340
v 0.018541 -0.057063 0.600000
vn 0.305598 -0.940534 0.148340
v 0.035267 -0.048541 0.600000
vn 0.581282 -0.800066 0.148340
v 0.048541 -0.035267 0.600000
vn 0.800066 -0.581282 0.148340
v 0.057063 -0.018541 0.600000
vn 0.940534 -0.305598 0.148340

f 1//1 3//3 2//2
f 1//1 4//4 3//3
f 1//1 5//5 4//4
f 1//1 6//6 5//5
f 1//1 7//7 6//6
f 1//1 8//8 7//7
f 1//1 9//9 8//8
f 1//1 10//10 9//9
f 1//1 11//11 10//10
f 1//1 12//12 11//11
f 1//1 13//13 12//12
f 1//1 14//14 13//13
f 1//1 15//15 14//14
f 1//1 16//16 15//15
f 1//1 17//17 16//16
f 1//1 18//18 17//17
f 1//1 19//19 18//18
f 1//1 20//20 19//19
f 21//21 42//42 41//41
f 21//21 22//22 42//42
f 22//22 43//43 42//42
f 22//22 23//23 43//43
f 23//23 44//44 43//43
f 23//23 24//24 44//44
f 24//24 45//45 44//44
f 24//24 25//25 45//45
f 25//25 46//46 45//45
f 25//25 26//26 46//46
f 26//26 47//47 46//46
f 26//26 27//27 47//47
f 27//27 48//48 47//47
f 27//27 28//28 48//48
f 28//28 49//49 48//48
f 28//28 29//29 49//49
f 29//29 50//50 49//49
f 29//29 30//30 50//50
f 30//30 51//51 50//50
f 30//30 31//31 51//51
f 31//31 52//52 51//51
f 31//31 32//32 52//52
f 32//32 53//53 52//52
f 32//32 33//33 53//53
f 33//33 54//54 53//53
f 33//33 34//34 54//54
f 34//34 55//55 54//54
f 34//34 35//35 55//55
f 35//35 56//56 55//55
f 35//35 36//36 56//56
f 36//36 57//57 56//56
f 36//36 37//37 57//57
f 37//37 58//58 57//57
f 37//37 38//38 58//58
f 38//38 59//59 58//58
f 38//38 39//39 59//59
f 39//39 60//60 59//59
f 39//39 40//40 60//60
f 40//40 41//41 60//60
f 40//40 21//21 41//41
f 61//61 82//82 81//81
f 61//61 62//62 82//82
f 62//62 83//83 82//82
f 62//62 63//63 83//83
f 63//63 84//84 83//83
f 63//63 64//64 84//84
f 64//64 85//85 84//84
f 64//64 65//65 85//85
f 65//65 86//86 85//85
f 65//65 66//66 86//86
f 66//66 87//87 86//86
f 66//66 67//67 87//87
f 67//67 88//88 87//87
f 67//67 68//68 88//88
f 68//68 89//89 88//88
f 68//68 69//69 89//89
f 69//69 90//90 89//89
f 69//69 70//70 90//90
f 70//70 91//91 90//90
f 70//70 71//71 91//91
f 71//71 92//92 91//91
f 71//71 72//72 92//92
f 72//72 93//93 92//92
f 72//72 73//73 93//93
f 73//73 94//94 93//93
f 73//73 74//74 94//94
f 74//74 95//95 94//94
f 74//74 75//75 95//95
f 75//75 96//96 95//95
f 75//75 76//76 96//96
f 76//76 97//97 96//96
f 76//76 77//77 97//97
f 77//77 98//98 97//97
f 77//77 78//78 98//98
f 78//78 99//99 98//98
f 78//78 79//79 99//99
f 79//79 100//100 99//99
f 79//79 80//80 100//100
f 80//80 81//81 100//100
f 80//80 61//61 81//81
f 101//101 102//102 103//103
f 101//101 103//103 104//104
f 101//101 104//104 105//105
f 101//101 105//105 106//106
f 101//101 106//106 107//107
f 101//101 107//107 108//108
f 101//101 108//108 109//109
f 101//101 109//109 110//110
f 101//101 110//110 111//111
f 101//101 111//111 112//112
f 101//101 112//112 113//113
f 101//101 113//113 114//114
f 101//101 114//114 115//115
f 101//101 115//115 116//116
f 101//101 116//116 117//117
f 101//101 117//117 118//118
f 101//101 118//118 119//119
f 101//101 119//119 120//120
f 101//101 120//120 121//121
f 101//101 121//121 102//102
