v 0.040000 0.000000 0.000000
vn 0.000000 0.000000 -1.000000
v 0.000000 0.040000 0.000000
vn 0.000000 0.000000 -1.000000
v -0.040000 0.000000 0.000000
vn 0.000000 0.000000 -1.000000
v -0.000000 -0.040000 0.000000
vn 0.000000 0.000000 -1.000000
v 0.040000 0.000000 0.000000
vn 1.000000 0.000000 0.000000
v 0.000000 0.040000 0.000000
vn 0.000000 1.000000 0.000000
v -0.040000 0.000000 0.000000
vn -1.000000 0.000000 0.000000
v -0.000000 -0.040000 0.000000
vn -0.000000 -1.000000 0.000000
v 0.040000 0.000000 0.500000
vn 1.000000 0.000000 0.000000
v 0.000000 0.040000 0.500000
vn 0.000000 1.000000 0.000000
v -0.040000 0.000000 0.500000
vn -1.000000 0.000000 0.000000
v -0.000000 -0.040000 0.500000
vn -0.000000 -1.000000 0.000000
v 0.040000 0.000000 0.500000
vn 0.000000 0.000000 -1.000000
v 0.000000 0.040000 0.500000
vn 0.000000 0.000000 -1.000000
v -0.040000 0.000000 0.500000
vn 0.000000 0.000000 -1.000000
v -0.000000 -0.040000 0.500000
vn 0.000000 0.000000 -1.000000
v 0.060000 0.000000 0.500000
vn 0.000000 0.000000 -1.000000
v 0.000000 0.060000 0.500000
vn 0.000000 0.000000 -1.000000
v -0.060000 0.000000 0.500000
vn 0.000000 0.000000 -1.000000
v -0.000000 -0.060000 0.500000
vn 0.000000 0.000000 -1.000000
v 0.000000 0.000000 1.000000
vn 0.000000 0.000000 1.000000
v 0.060000 0.000000 0.500000
vn 0.992877 0.000000 0.119145
v 0.000000 0.060000 0.500000
vn 0.000000 0.992877 0.119145
v -0.060000 0.000000 0.500000
vn -0.992877 0.000000 0.119145
v -0.000000 -0.060000 0.500000
vn -0.000000 -0.992877 0.119145

f 1//1 3//3 2//2
f 1//1 4//4 3//3
f 5//5 10//10 9//9
f 5//5 6//6 10//10
f 6//6 11//11 10//10
f 6//6 7//7 11//11
f 7//7 12//12 11//11
f 7//7 8//8 12//12
f 8//8 9//9 12//12
f 8//8 5//5 9//9
f 13//13 18//18 17//17
f 13//13 14//14 18//18
f 14//14 19//19 18//18
f 14//14 15//15 19//19
f 15//15 20//20 19//19
f 15//15 16//16 20//20
f 16//16 17//17 20//20
f 16//16 13//13 17//17
f 21//21 22//22 23//23
f 21//21 23//23 24//24
f 21//21 24//24 25//25
f 21//21 25//25 22//22
