v 0.040000 0.000000 0.000000
vn 0.000000 0.000000 -1.000000
v -0.020000 0.034641 0.000000
vn 0.000000 0.000000 -1.000000
v -0.020000 -0.034641 0.000000
vn 0.000000 0.000000 -1.000000
v 0.040000 0.000000 0.000000
vn 1.000000 0.000000 0.000000
v -0.020000 0.034641 0.000000
vn -0.500000 0.866025 0.000000
v -0.020000 -0.034641 0.000000
vn -0.500000 -0.866025 0.000000
v 0.040000 0.000000 0.500000
vn 1.000000 0.000000 0.000000
v -0.020000 0.034641 0.500000
vn -0.500000 0.866025 0.000000
v -0.020000 -0.034641 0.500000
vn -0.500000 -0.866025 0.000000
v 0.040000 0.000000 0.500000
vn 0.000000 0.000000 -1.000000
v -0.020000 0.034641 0.500000
vn 0.000000 0.000000 -1.000000
v -0.020000 -0.034641 0.500000
vn 0.000000 0.000000 -1.000000
v 0.100000 0.000000 0.500000
vn 0.000000 0.000000 -1.000000
v -0.050000 0.086603 0.500000
vn 0.000000 0.000000 -1.000000
v -0.050000 -0.086603 0.500000
vn 0.000000 0.000000 -1.000000
v 0.000000 0.000000 1.000000
vn 0.000000 0.000000 1.000000
v 0.100000 0.000000 0.500000
vn 0.980581 0.000000 0.196116
v -0.050000 0.086603 0.500000
vn -0.490290 0.849208 0.196116
v -0.050000 -0.086603 0.500000
vn -0.490290 -0.849208 0.196116

f 1//1 3//3 2//2
f 4//4 8//8 7//7
f 4//4 5//5 8//8
f 5//5 9//9 8//8
f 5//5 6//6 9//9
f 6//6 7//7 9//9
f 6//6 4//4 7//7
f 10//10 14//14 13//13
f 10//10 11//11 14//14
f 11//11 15//15 14//14
f 11//11 12//12 15//15
f 12//12 13//13 15//15
f 12//12 10//10 13//13
f 16//16 17//17 18//18
f 16//16 18//18 19//19
f 16//16 19//19 17//17
