v 0.040000 0.000000 0.000000
vn 0.000000 0.000000 -1.000000
v 0.037588 0.013681 0.000000
vn 0.000000 0.000000 -1.000000
v 0.030642 0.025712 0.000000
vn 0.000000 0.000000 -1.000000
v 0.020000 0.034641 0.000000
vn 0.000000 0.000000 -1.000000
v 0.006946 0.039392 0.000000
vn 0.000000 0.000000 -1.000000
v -0.006946 0.039392 0.000000
vn 0.000000 0.000000 -1.000000
v -0.020000 0.034641 0.000000
vn 0.000000 0.000000 -1.000000
v -0.030642 0.025712 0.000000
vn 0.000000 0.000000 -1.000000
v -0.037588 0.013681 0.000000
vn 0.000000 0.000000 -1.000000
v -0.040000 0.000000 0.000000
vn 0.000000 0.000000 -1.000000
v -0.037588 -0.013681 0.000000
vn 0.000000 0.000000 -1.000000
v -0.030642 -0.025712 0.000000
vn 0.000000 0.000000 -1.000000
v -0.020000 -0.034641 0.000000
vn 0.000000 0.000000 -1.000000
v -0.006946 -0.039392 0.000000
vn 0.000000 0.000000 -1.000000
v 0.006946 -0.039392 0.000000
vn 0.000000 0.000000 -1.000000
v 0.020000 -0.034641 0.000000
vn 0.000000 0.000000 -1.000000
v 0.030642 -0.025712 0.000000
vn 0.000000 0.000000 -1.000000
v 0.037588 -0.013681 0.000000
vn 0.000000 0.000000 -1.000000
v 0.040000 0.000000 0.000000
vn 1.000000 0.000000 0.000000
v 0.037588 0.013681 0.000000
vn 0.939693 0.342020 0.000000
v 0.030642 0.025712 0.000000
vn 0.766044 0.642788 0.000000
v 0.020000 0.034641 0.000000
vn 0.500000 0.866025 0.000000
v 0.006946 0.039392 0.000000
vn 0.173648 0.984808 0.000000
v -0.006946 0.039392 0.000000
vn -0.173648 0.984808 0.000000
v -0.020000 0.034641 0.000000
vn -0.500000 0.866025 0.000000
v -0.030642 0.025712 0.000000
vn -0.766044 0.642788 0.000000
v -0.037588 0.013681 0.000000
vn -0.939693 0.342020 0.000000
v -0.040000 0.000000 0.000000
vn -1.000000 0.000000 0.000000
v -0.037588 -0.013681 0.000000
vn -0.939693 -0.342020 0.000000
v -0.030642 -0.025712 0.000000
vn -0.766044 -0.642788 0.000000
v -0.020000 -0.034641 0.000000
vn -0.500000 -0.866025 0.000000
v -0.006946 -0.039392 0.000000
vn -0.173648 -0.984808 0.000000
v 0.006946 -0.039392 0.000000
vn 0.173648 -0.984808 0.000000
v 0.020000 -0.034641 0.000000
vn 0.500000 -0.866025 0.000000
v 0.030642 -0.025712 0.000000
vn 0.766044 -0.642788 0.000000
v 0.037588 -0.013681 0.000000
vn 0.939693 -0.342020 0.000000
v 0.040000 0.000000 0.500000
vn 1.000000 0.000000 0.000000
v 0.037588 0.013681 0.500000
vn 0.939693 0.342020 0.000000
v 0.030642 0.025712 0.500000
vn 0.766044 0.642788 0.000000
v 0.020000 0.034641 0.500000
vn 0.500000 0.866025 0.000000
v 0.006946 0.039392 0.500000
vn 0.173648 0.984808 0.000000
v -0.006946 0.039392 0.500000
vn -0.173648 0.984808 0.000000
v -0.020000 0.034641 0.500000
vn -0.500000 0.866025 0.000000
v -0.030642 0.025712 0.500000
vn -0.766044 0.642788 0.000000
v -0.037588 0.013681 0.500000
vn -0.939693 0.342020 0.000000
v -0.040000 0.000000 0.500000
vn -1.000000 0.000000 0.000000
v -0.037588 -0.013681 0.500000
vn -0.939693 -0.342020 0.000000
v -0.030642 -0.025712 0.500000
vn -0.766044 -0.642788 0.000000
v -0.020000 -0.034641 0.500000
vn -0.500000 -0.866025 0.000000
v -0.006946 -0.039392 0.500000
vn -0.173648 -0.984808 0.000000
v 0.006946 -0.039392 0.500000
vn 0.173648 -0.984808 0.000000
v 0.020000 -0.034641 0.500000
vn 0.500000 -0.866025 0.000000
v 0.030642 -0.025712 0.500000
vn 0.766044 -0.642788 0.000000
v 0.037588 -0.013681 0.500000
vn 0.939693 -0.342020 0.000000
v 0.040000 0.000000 0.500000
vn 0.000000 0.000000 -1.000000
v 0.037588 0.013681 0.500000
vn 0.000000 0.000000 -1.000000
v 0.030642 0.025712 0.500000
vn 0.000000 0.000000 -1.000000
v 0.020000 0.034641 0.500000
vn 0.000000 0.000000 -1.000000
v 0.006946 0.039392 0.500000
vn 0.000000 0.000000 -1.000000
v -0.006946 0.039392 0.500000
vn 0.000000 0.000000 -1.000000
v -0.020000 0.034641 0.500000
vn 0.000000 0.000000 -1.000000
v -0.030642 0.025712 0.500000
vn 0.000000 0.000000 -1.000000
v -0.037588 0.013681 0.500000
vn 0.000000 0.000000 -1.000000
v -0.040000 0.000000 0.500000
vn 0.000000 0.000000 -1.000000
v -0.037588 -0.013681 0.500000
vn 0.000000 0.000000 -1.000000
v -0.030642 -0.025712 0.500000
vn 0.000000 0.000000 -1.000000
v -0.020000 -0.034641 0.500000
vn 0.000000 0.000000 -1.000000
v -0.006946 -0.039392 0.500000
vn 0.000000 0.000000 -1.000000
v 0.006946 -0.039392 0.500000
vn 0.000000 0.000000 -1.000000
v 0.020000 -0.034641 0.500000
vn 0.000000 0.000000 -1.000000
v 0.030642 -0.025712 0.500000
vn 0.000000 0.000000 -1.000000
v 0.037588 -0.013681 0.500000
vn 0.000000 0.000000 -1.000000
v 0.100000 0.000000 0.500000
vn 0.000000 0.000000 -1.000000
v 0.093969 0.034202 0.500000
vn 0.000000 0.000000 -1.000000
v 0.076604 0.064279 0.500000
vn 0.000000 0.000000 -1.000000
v 0.050000 0.086603 0.500000
vn 0.000000 0.000000 -1.000000
v 0.017365 0.098481 0.500000
vn 0.000000 0.000000 -1.000000
v -0.017365 0.098481 0.500000
vn 0.000000 0.000000 -1.000000
v -0.050000 0.086603 0.500000
vn 0.000000 0.000000 -1.000000
v -0.076604 0.064279 0.500000
vn 0.000000 0.000000 -1.000000
v -0.093969 0.034202 0.500000
vn 0.000000 0.000000 -1.000000
v -0.100000 0.000000 0.500000
vn 0.000000 0.000000 -1.000000
v -0.093969 -0.034202 0.500000
vn 0.000000 0.000000 -1.000000
v -0.076604 -0.064279 0.500000
vn 0.000000 0.000000 -1.000000
v -0.050000 -0.086603 0.500000
vn 0.000000 0.000000 -1.000000
v -0.017365 -0.098481 0.500000
vn 0.000000 0.000000 -1.000000
v 0.017365 -0.098481 0.500000
vn 0.000000 0.000000 -1.000000
v 0.050000 -0.086603 0.500000
vn 0.000000 0.000000 -1.000000
v 0.076604 -0.064279 0.500000
vn 0.000000 0.000000 -1.000000
v 0.093969 -0.034202 0.500000
vn 0.000000 0.000000 -1.000000
v 0.000000 0.000000 1.000000
vn 0.000000 0.000000 1.000000
v 0.100000 0.000000 0.500000
vn 0.980581 0.000000 0.196116
v 0.093969 0.034202 0.500000
vn 0.921444 0.335378 0.196116
v 0.076604 0.064279 0.500000
vn 0.751168 0.630305 0.196116
v 0.050000 0.086603 0.500000
vn 0.490290 0.849208 0.196116
v 0.017365 0.098481 0.500000
vn 0.170276 0.965683 0.196116
v -0.017365 0.098481 0.500000
vn -0.170276 0.965683 0.196116
v -0.050000 0.086603 0.500000
vn -0.490290 0.849208 0.196116
v -0.076604 0.064279 0.500000
vn -0.751168 0.630305 0.196116
v -0.093969 0.034202 0.500000
vn -0.921444 0.335378 0.196116
v -0.100000 0.000000 0.500000
vn -0.980581 0.000000 0.196116
v -0.093969 -0.034202 0.500000
vn -0.921444 -0.335378 0.196116
v -0.076604 -0.064279 0.500000
vn -0.751168 -0.630305 0.196116
v -0.050000 -0.086603 0.500000
vn -0.490290 -0.849208 0.196116
v -0.017365 -0.098481 0.500000
vn -0.170276 -0.965683 0.196116
v 0.017365 -0.098481 0.500000
vn 0.170276 -0.965683 0.196116
v 0.050000 -0.086603 0.500000
vn 0.490290 -0.849208 0.196116
v 0.076604 -0.064279 0.500000
vn 0.751168 -0.630305 0.196116
v 0.093969 -0.034202 0.500000
vn 0.921444 -0.335378 0.196116

f 1//1 3//3 2//2
f 1//1 4//4 3//3
f 1//1 5//5 4//4
f 1//1 6//6 5//5
f 1//1 7//7 6//6
f 1//1 8//8 7//7
f 1//1 9//9 8//8
f 1//1 10//10 9//9
f 1//1 11//11 10//10
f 1//1 12//12 11//11
f 1//1 13//13 12//12
f 1//1 14//14 13//13
f 1//1 15//15 14//14
f 1//1 16//16 15//15
f 1//1 17//17 16//16
f 1//1 18//18 17//17
f 19//19 38//38 37//37
f 19//19 20//20 38//38
f 20//20 39//39 38//38
f 20//20 21//21 39//39
f 21//21 40//40 39//39
f 21//21 22//22 40//40
f 22//22 41//41 40//40
f 22//22 23//23 41//41
f 23//23 42//42 41//41
f 23//23 24//24 42//42
f 24//24 43//43 42//42
f 24//24 25//25 43//43
f 25//25 44//44 43//43
f 25//25 26//26 44//44
f 26//26 45//45 44//44
f 26//26 27//27 45//45
f 27//27 46//46 45//45
f 27//27 28//28 46//46
f 28//28 47//47 46//46
f 28//28 29//29 47//47
f 29//29 48//48 47//47
f 29//29 30//30 48//48
f 30//30 49//49 48//48
f 30//30 31//31 49//49
f 31//31 50//50 49//49
f 31//31 32//32 50//50
f 32//32 51//51 50//50
f 32//32 33//33 51//51
f 33//33 52//52 51//51
f 33//33 34//34 52//52
f 34//34 53//53 52//52
f 34//34 35//35 53//53
f 35//35 54//54 53//53
f 35//35 36//36 54//54
f 36//36 37//37 54//54
f 36//36 19//19 37//37
f 55//55 74//74 73//73
f 55//55 56//56 74//74
f 56//56 75//75 74//74
f 56//56 57//57 75//75
f 57//57 76//76 75//75
f 57//57 58//58 76//76
f 58//58 77//77 76//76
f 58//58 59//59 77//77
f 59//59 78//78 77//77
f 59//59 60//60 78//78
f 60//60 79//79 78//78
f 60//60 61//61 79//79
f 61//61 80//80 79//79
f 61//61 62//62 80//80
f 62//62 81//81 80//80
f 62//62 63//63 81//81
f 63//63 82//82 81//81
f 63//63 64//64 82//82
f 64//64 83//83 82//82
f 64//64 65//65 83//83
f 65//65 84//84 83//83
f 65//65 66//66 84//84
f 66//66 85//85 84//84
f 66//66 67//67 85//85
f 67//67 86//86 85//85
f 67//67 68//68 86//86
f 68//68 87//87 86//86
f 68//68 69//69 87//87
f 69//69 88//88 87//87
f 69//69 70//70 88//88
f 70//70 89//89 88//88
f 70//70 71//71 89//89
f 71//71 90//90 89//89
f 71//71 72//72 90//90
f 72//72 73//73 90//90
f 72//72 55//55 73//73
f 91//91 92//92 93//93
f 91//91 93//93 94//94
f 91//91 94//94 95//95
f 91//91 95//95 96//96
f 91//91 96//96 97//97
f 91//91 97//97 98//98
f 91//91 98//98 99//99
f 91//91 99//99 100//100
f 91//91 100//100 101//101
f 91//91 101//101 102//102
f 91//91 102//102 103//103
f 91//91 103//103 104//104
f 91//91 104//104 105//105
f 91//91 105//105 106//106
f 91//91 106//106 107//107
f 91//91 107//107 108//108
f 91//91 108//108 109//109
f 91//91 109//109 92//92
