v 0.040000 0.000000 0.000000
vn 0.000000 0.000000 -1.000000
v 0.024940 0.031273 0.000000
vn 0.000000 0.000000 -1.000000
v -0.008901 0.038997 0.000000
vn 0.000000 0.000000 -1.000000
v -0.036039 0.017355 0.000000
vn 0.000000 0.000000 -1.000000
v -0.036039 -0.017355 0.000000
vn 0.000000 0.000000 -1.000000
v -0.008901 -0.038997 0.000000
vn 0.000000 0.000000 -1.000000
v 0.024940 -0.031273 0.000000
vn 0.000000 0.000000 -1.000000
v 0.040000 0.000000 0.000000
vn 1.000000 0.000000 0.000000
v 0.024940 0.031273 0.000000
vn 0.623490 0.781831 0.000000
v -0.008901 0.038997 0.000000
vn -0.222521 0.974928 0.000000
v -0.036039 0.017355 0.000000
vn -0.900969 0.433884 0.000000
v -0.036039 -0.017355 0.000000
vn -0.900969 -0.433884 0.000000
v -0.008901 -0.038997 0.000000
vn -0.222521 -0.974928 0.000000
v 0.024940 -0.031273 0.000000
vn 0.623490 -0.781831 0.000000
v 0.040000 0.000000 0.700000
vn 1.000000 0.000000 0.000000
v 0.024940 0.031273 0.700000
vn 0.623490 0.781831 0.000000
v -0.008901 0.038997 0.700000
vn -0.222521 0.974928 0.000000
v -0.036039 0.017355 0.700000
vn -0.900969 0.433884 0.000000
v -0.036039 -0.017355 0.700000
vn -0.900969 -0.433884 0.000000
v -0.008901 -0.038997 0.700000
vn -0.222521 -0.974928 0.000000
v 0.024940 -0.031273 0.700000
vn 0.623490 -0.781831 0.000000
v 0.040000 0.000000 0.700000
vn 0.000000 0.000000 -1.000000
v 0.024940 0.031273 0.700000
vn 0.000000 0.000000 -1.000000
v -0.008901 0.038997 0.700000
vn 0.000000 0.000000 -1.000000
v -0.036039 0.017355 0.700000
vn 0.000000 0.000000 -1.000000
v -0.036039 -0.017355 0.700000
vn 0.000000 0.000000 -1.000000
v -0.008901 -0.038997 0.700000
vn 0.000000 0.000000 -1.000000
v 0.024940 -0.031273 0.700000
vn 0.000000 0.000000 -1.000000
v 0.060000 0.000000 0.700000
vn 0.000000 0.000000 -1.000000
v 0.037409 0.046910 0.700000
vn 0.000000 0.000000 -1.000000
v -0.013351 0.058496 0.700000
vn 0.000000 0.000000 -1.000000
v -0.054058 0.026033 0.700000
vn 0.000000 0.000000 -1.000000
v -0.054058 -0.026033 0.700000
vn 0.000000 0.000000 -1.000000
v -0.013351 -0.058496 0.700000
vn 0.000000 0.000000 -1.000000
v 0.037409 -0.046910 0.700000
vn 0.000000 0.000000 -1.000000
v 0.000000 0.000000 1.000000
vn 0.000000 0.000000 1.000000
v 0.060000 0.000000 0.700000
vn 0.980581 0.000000 0.196116
v 0.037409 0.046910 0.700000
vn 0.611382 0.766649 0.196116
v -0.013351 0.058496 0.700000
vn -0.218200 0.955995 0.196116
v -0.054058 0.026033 0.700000
vn -0.883473 0.425458 0.196116
v -0.054058 -0.026033 0.700000
vn -0.883473 -0.425458 0.196116
v -0.013351 -0.058496 0.700000
vn -0.218200 -0.955995 0.196116
v 0.037409 -0.046910 0.700000
vn 0.611382 -0.766649 0.196116

f 1//1 3//3 2//2
f 1//1 4//4 3//3
f 1//1 5//5 4//4
f 1//1 6//6 5//5
f 1//1 7//7 6//6
f 8//8 16//16 15//15
f 8//8 9//9 16//16
f 9//9 17//17 16//16
f 9//9 10//10 17//17
f 10//10 18//18 17//17
f 10//10 11//11 18//18
f 11//11 19//19 18//18
f 11//11 12//12 19//19
f 12//12 20//20 19//19
f 12//12 13//13 20//20
f 13//13 21//21 20//20
f 13//13 14//14 21//21
f 14//14 15//15 21//21
f 14//14 8//8 15//15
f 22//22 30//30 29//29
f 22//22 23//23 30//30
f 23//23 31//31 30//30
f 23//23 24//24 31//31
f 24//24 32//32 31//31
f 24//24 25//25 32//32
f 25//25 33//33 32//32
f 25//25 26//26 33//33
f 26//26 34//34 33//33
f 26//26 27//27 34//34
f 27//27 35//35 34//34
f 27//27 28//28 35//35
f 28//28 29//29 35//35
f 28//28 22//22 29//29
f 36//36 37//37 38//38
f 36//36 38//38 39//39
f 36//36 39//39 40//40
f 36//36 40//40 41//41
f 36//36 41//41 42//42
f 36//36 42//42 43//43
f 36//36 43//43 37//37
