v 0.040000 0.000000 0.000000
vn 0.000000 0.000000 -1.000000
v 0.034641 0.020000 0.000000
vn 0.000000 0.000000 -1.000000
v 0.020000 0.034641 0.000000
vn 0.000000 0.000000 -1.000000
v 0.000000 0.040000 0.000000
vn 0.000000 0.000000 -1.000000
v -0.020000 0.034641 0.000000
vn 0.000000 0.000000 -1.000000
v -0.034641 0.020000 0.000000
vn 0.000000 0.000000 -1.000000
v -0.040000 0.000000 0.000000
vn 0.000000 0.000000 -1.000000
v -0.034641 -0.020000 0.000000
vn 0.000000 0.000000 -1.000000
v -0.020000 -0.034641 0.000000
vn 0.000000 0.000000 -1.000000
v -0.000000 -0.040000 0.000000
vn 0.000000 0.000000 -1.000000
v 0.020000 -0.034641 0.000000
vn 0.000000 0.000000 -1.000000
v 0.034641 -0.020000 0.000000
vn 0.000000 0.000000 -1.000000
v 0.040000 0.000000 0.000000
vn 1.000000 0.000000 0.000000
v 0.034641 0.020000 0.000000
vn 0.866025 0.500000 0.000000
v 0.020000 0.034641 0.000000
vn 0.500000 0.866025 0.000000
v 0.000000 0.040000 0.000000
vn 0.000000 1.000000 0.000000
v -0.020000 0.034641 0.000000
vn -0.500000 0.866025 0.000000
v -0.034641 0.020000 0.000000
vn -0.866025 0.500000 0.000000
v -0.040000 0.000000 0.000000
vn -1.000000 0.000000 0.000000
v -0.034641 -0.020000 0.000000
vn -0.866025 -0.500000 0.000000
v -0.020000 -0.034641 0.000000
vn -0.500000 -0.866025 0.000000
v -0.000000 -0.040000 0.000000
vn -0.000000 -1.000000 0.000000
v 0.020000 -0.034641 0.000000
vn 0.500000 -0.866025 0.000000
v 0.034641 -0.020000 0.000000
vn 0.866025 -0.500000 0.000000
v 0.040000 0.000000 0.250000
vn 1.000000 0.000000 0.000000
v 0.034641 0.020000 0.250000
vn 0.866025 0.500000 0.000000
v 0.020000 0.034641 0.250000
vn 0.500000 0.866025 0.000000
v 0.000000 0.040000 0.250000
vn 0.000000 1.000000 0.000000
v -0.020000 0.034641 0.250000
vn -0.500000 0.866025 0.000000
v -0.034641 0.020000 0.250000
vn -0.866025 0.500000 0.000000
v -0.040000 0.000000 0.250000
vn -1.000000 0.000000 0.000000
v -0.034641 -0.020000 0.250000
vn -0.866025 -0.500000 0.000000
v -0.020000 -0.034641 0.250000
vn -0.500000 -0.866025 0.000000
v -0.000000 -0.040000 0.250000
vn -0.000000 -1.000000 0.000000
v 0.020000 -0.034641 0.250000
vn 0.500000 -0.866025 0.000000
v 0.034641 -0.020000 0.250000
vn 0.866025 -0.500000 0.000000
v 0.040000 0.000000 0.250000
vn 0.000000 0.000000 -1.000000
v 0.034641 0.020000 0.250000
vn 0.000000 0.000000 -1.000000
v 0.020000 0.034641 0.250000
vn 0.000000 0.000000 -1.000000
v 0.000000 0.040000 0.250000
vn 0.000000 0.000000 -1.000000
v -0.020000 0.034641 0.250000
vn 0.000000 0.000000 -1.000000
v -0.034641 0.020000 0.250000
vn 0.000000 0.000000 -1.000000
v -0.040000 0.000000 0.250000
vn 0.000000 0.000000 -1.000000
v -0.034641 -0.020000 0.250000
vn 0.000000 0.000000 -1.000000
v -0.020000 -0.034641 0.250000
vn 0.000000 0.000000 -1.000000
v -0.000000 -0.040000 0.250000
vn 0.000000 0.000000 -1.000000
v 0.020000 -0.034641 0.250000
vn 0.000000 0.000000 -1.000000
v 0.034641 -0.020000 0.250000
vn 0.000000 0.000000 -1.000000
v 0.080000 0.000000 0.250000
vn 0.000000 0.000000 -1.000000
v 0.069282 0.040000 0.250000
vn 0.000000 0.000000 -1.000000
v 0.040000 0.069282 0.250000
vn 0.000000 0.000000 -1.000000
v 0.000000 0.080000 0.250000
vn 0.000000 0.000000 -1.000000
v -0.040000 0.069282 0.250000
vn 0.000000 0.000000 -1.000000
v -0.069282 0.040000 0.250000
vn 0.000000 0.000000 -1.000000
v -0.080000 0.000000 0.250000
vn 0.000000 0.000000 -1.000000
v -0.069282 -0.040000 0.250000
vn 0.000000 0.000000 -1.000000
v -0.040000 -0.069282 0.250000
vn 0.000000 0.000000 -1.000000
v -0.000000 -0.080000 0.250000
vn 0.000000 0.000000 -1.000000
v 0.040000 -0.069282 0.250000
vn 0.000000 0.000000 -1.000000
v 0.069282 -0.040000 0.250000
vn 0.000000 0.000000 -1.000000
v 0.000000 0.000000 1.000000
vn 0.000000 0.000000 1.000000
v 0.080000 0.000000 0.250000
vn 0.994359 0.000000 0.106065
v 0.069282 0.040000 0.250000
vn 0.861140 0.497180 0.106065
v 0.040000 0.069282 0.250000
vn 0.497180 0.861140 0.106065
v 0.000000 0.080000 0.250000
vn 0.000000 0.994359 0.106065
v -0.040000 0.069282 0.250000
vn -0.497180 0.861140 0.106065
v -0.069282 0.040000 0.250000
vn -0.861140 0.497180 0.106065
v -0.080000 0.000000 0.250000
vn -0.994359 0.000000 0.106065
v -0.069282 -0.040000 0.250000
vn -0.861140 -0.497180 0.106065
v -0.040000 -0.069282 0.250000
vn -0.497180 -0.861140 0.106065
v -0.000000 -0.080000 0.250000
vn -0.000000 -0.994359 0.106065
v 0.040000 -0.069282 0.250000
vn 0.497180 -0.861140 0.106065
v 0.069282 -0.040000 0.250000
vn 0.861140 -0.497180 0.106065

f 1//1 3//3 2//2
f 1//1 4//4 3//3
f 1//1 5//5 4//4
f 1//1 6//6 5//5
f 1//1 7//7 6//6
f 1//1 8//8 7//7
f 1//1 9//9 8//8
f 1//1 10//10 9//9
f 1//1 11//11 10//10
f 1//1 12//12 11//11
f 13//13 26//26 25//25
f 13//13 14//14 26//26
f 14//14 27//27 26//26
f 14//14 15//15 27//27
f 15//15 28//28 27//27
f 15//15 16//16 28//28
f 16//16 29//29 28//28
f 16//16 17//17 29//29
f 17//17 30//30 29//29
f 17//17 18//18 30//30
f 18//18 31//31 30//30
f 18//18 19//19 31//31
f 19//19 32//32 31//31
f 19//19 20//20 32//32
f 20//20 33//33 32//32
f 20//20 21//21 33//33
f 21//21 34//34 33//33
f 21//21 22//22 34//34
f 22//22 35//35 34//34
f 22//22 23//23 35//35
f 23//23 36//36 35//35
f 23//23 24//24 36//36
f 24//24 25//25 36//36
f 24//24 13//13 25//25
f 37//37 50//50 49//49
f 37//37 38//38 50//50
f 38//38 51//51 50//50
f 38//38 39//39 51//51
f 39//39 52//52 51//51
f 39//39 40//40 52//52
f 40//40 53//53 52//52
f 40//40 41//41 53//53
f 41//41 54//54 53//53
f 41//41 42//42 54//54
f 42//42 55//55 54//54
f 42//42 43//43 55//55
f 43//43 56//56 55//55
f 43//43 44//44 56//56
f 44//44 57//57 56//56
f 44//44 45//45 57//57
f 45//45 58//58 57//57
f 45//45 46//46 58//58
f 46//46 59//59 58//58
f 46//46 47//47 59//59
f 47//47 60//60 59//59
f 47//47 48//48 60//60
f 48//48 49//49 60//60
f 48//48 37//37 49//49
f 61//61 62//62 63//63
f 61//61 63//63 64//64
f 61//61 64//64 65//65
f 61//61 65//65 66//66
f 61//61 66//66 67//67
f 61//61 67//67 68//68
f 61//61 68//68 69//69
f 61//61 69//69 70//70
f 61//61 70//70 71//71
f 61//61 71//71 72//72
f 61//61 72//72 73//73
f 61//61 73//73 62//62
